<svg width="120" height="120" fill="none" xmlns="http://www.w3.org/2000/svg"><g clip-path="url(#clip0)" fill="#fff"><path d="M55.1 106.517H37.145c-.42-4.802-1.934-5.953-6.445-8.774a114.647 114.647 0 01-5.21-3.41c-.779-.6-2.653-2.25-3.86-5.057l-9.553-22.312c-.602-1.403-.001-2.43.86-2.825.817-.374 1.975-.19 2.774 1.447l.024.046 6.178 11.753c.965 1.835 2.231 3.033 3.456 4.192.392.37.797.754 1.197 1.162.028.028.056.055.085.08l9.082 8.102c.039.034.078.067.12.098 2.531 1.886 5.124 1.101 6.462-.426 1.389-1.584 1.765-4.247-.197-6.277a85.258 85.258 0 01-2.304-2.596 178.966 178.966 0 00-1.718-1.971c-1.378-1.565-1.59-3.19-.553-4.24.911-.924 2.67-1.247 4.414.178L50.1 85.5c2.634 3.171 2.634 8.452 2.634 13.112 0 .53 0 1.05.004 1.556a1.758 1.758 0 001.757 1.744h.015a1.758 1.758 0 001.744-1.772c-.005-.496-.005-1.008-.005-1.529 0-4.994 0-11.209-3.444-15.357L44.56 73.32a1.716 1.716 0 00-.207-.21c-3.334-2.863-7.208-2.203-9.311-.072-1.984 2.009-2.625 5.582.419 9.038.69.78 1.221 1.396 1.69 1.94.75.87 1.398 1.622 2.403 2.705l.03.03c.728.749.155 1.448.087 1.525-.4.457-.988.444-1.662-.036l-8.975-8.005c-.43-.438-.846-.83-1.25-1.212-1.154-1.092-2.066-1.955-2.759-3.273l-6.167-11.73c-1.782-3.62-5.075-4.134-7.385-3.075-2.35 1.077-4.07 4.039-2.628 7.405L18.4 90.662c1.495 3.479 3.767 5.559 4.988 6.489l.058.042c2.204 1.541 3.97 2.645 5.39 3.532 3.83 2.394 4.577 2.861 4.817 6.078a3.782 3.782 0 00-2.341 3.491v5.923A3.784 3.784 0 0035.089 120H55.1a3.785 3.785 0 003.778-3.783v-5.923a3.781 3.781 0 00-3.778-3.777zm.262 9.7a.27.27 0 01-.262.267H35.09a.271.271 0 01-.263-.267v-5.923c0-.139.123-.261.262-.261H55.1c.14 0 .262.122.262.261v5.923zm54.655-55.274c-2.31-1.058-5.602-.544-7.381 3.076L96.469 75.75c-.692 1.318-1.604 2.18-2.759 3.273-.402.38-.819.774-1.25 1.212l-8.974 8.005c-.673.48-1.262.493-1.663.036-.068-.078-.643-.778.084-1.526l.027-.029a88.93 88.93 0 002.478-2.79c.457-.529.962-1.114 1.618-1.858 3.044-3.452 2.406-7.025.423-9.035-2.103-2.131-5.977-2.791-9.31.07a1.747 1.747 0 00-.209.212l-8.244 9.933c-3.446 4.15-3.447 10.364-3.447 15.357l-.001 1.098a1.758 1.758 0 001.75 1.765H67c.967 0 1.753-.782 1.757-1.75.002-.365.002-.736.002-1.113 0-4.658 0-9.937 2.636-13.111l8.143-9.812c1.745-1.426 3.502-1.102 4.413-.18 1.036 1.05.822 2.675-.558 4.24-.666.757-1.179 1.35-1.643 1.889a87.112 87.112 0 01-2.38 2.68c-1.958 2.032-1.58 4.695-.19 6.278 1.339 1.526 3.932 2.31 6.462.425a1.65 1.65 0 00.12-.098l9.082-8.101a1.7 1.7 0 00.085-.081c.4-.408.805-.791 1.197-1.162 1.225-1.159 2.492-2.357 3.456-4.191l6.178-11.754a.868.868 0 00.025-.048c.797-1.635 1.954-1.818 2.77-1.445.863.395 1.465 1.422.864 2.825l-9.561 22.313c-1.204 2.815-3.08 4.46-3.858 5.054-2.116 1.48-3.83 2.551-5.209 3.413-4.508 2.82-6.02 3.972-6.44 8.773H66.395a3.781 3.781 0 00-3.777 3.777v5.923A3.785 3.785 0 0066.395 120h20.011a3.785 3.785 0 003.778-3.783v-5.923a3.78 3.78 0 00-2.341-3.491c.24-3.217.986-3.684 4.813-6.078 1.418-.887 3.184-1.992 5.388-3.533a1.75 1.75 0 00.053-.04c1.225-.927 3.502-3.004 4.993-6.492l9.56-22.311c1.443-3.368-.28-6.33-2.633-7.407zm-23.35 55.274a.27.27 0 01-.261.267H66.395a.271.271 0 01-.262-.267v-5.923c0-.139.122-.261.262-.261h20.01c.14 0 .262.122.262.261v5.923zm31.575-93.6h-8.404a1.758 1.758 0 100 3.516h8.404a1.758 1.758 0 100-3.516zm-11.884-10.031c.375 0 .754-.12 1.074-.367l6.976-5.399a1.758 1.758 0 10-2.151-2.78l-6.976 5.398a1.758 1.758 0 001.077 3.148zm8.05 29.337l-6.976-5.399a1.758 1.758 0 10-2.151 2.78l6.976 5.399a1.756 1.756 0 002.466-.314 1.758 1.758 0 00-.315-2.466zM11.913 24.375c0-.971-.787-1.758-1.758-1.758H1.758a1.758 1.758 0 000 3.516h8.398c.97 0 1.757-.787 1.757-1.758zM5.585 6.82l6.976 5.399a1.755 1.755 0 002.466-.314 1.758 1.758 0 00-.314-2.467L7.737 4.04a1.757 1.757 0 10-2.152 2.78zm9.442 30.019a1.758 1.758 0 00-2.466-.315l-6.976 5.399a1.758 1.758 0 102.152 2.78l6.976-5.399a1.758 1.758 0 00.314-2.465zm49.255 27.326a1.758 1.758 0 000 3.516h14.623a2.917 2.917 0 002.914-2.913v-3.799c0-1.884-.323-3.447-.879-4.756h18.301a2.92 2.92 0 002.921-2.913v-3.798c0-7.82-5.54-10.136-10.34-11.507a1.764 1.764 0 00-.21-.06c-.505-.142-1-.274-1.48-.402-.315-.084-.629-.167-.936-.251-.463-.127-.807-.725-1.066-1.327 4.772-3.22 8.331-8.77 8.331-13.605v-4.397c0-5.418-1.731-10.017-5.007-13.298C88.526 1.72 84.584.067 80.355 0h-.057c-6.294.104-13.205 3.965-15.403 12.295a16.377 16.377 0 00-4.94-.827c-1.69.028-3.331.313-4.883.827C52.87 3.965 45.96.105 39.67 0h-.057c-4.23.067-8.172 1.72-11.1 4.655-3.276 3.281-5.007 7.88-5.007 13.299v4.396c0 4.836 3.559 10.386 8.33 13.606-.258.602-.6 1.198-1.062 1.325-.31.085-.624.168-.94.253-.454.12-.923.246-1.4.38a1.77 1.77 0 00-.305.086c-4.796 1.371-10.324 3.693-10.324 11.502V53.3a2.917 2.917 0 002.914 2.914h18.308c-.555 1.309-.879 2.872-.879 4.756v3.798a2.917 2.917 0 002.914 2.913H56.37a1.758 1.758 0 100-3.515H41.663V60.97c0-4.905 2.68-6.575 7.217-7.952l8.229 4.828c1.033.662 1.953.993 2.873.993.92 0 1.839-.331 2.869-.993l8.234-4.828c4.537 1.377 7.217 3.047 7.217 7.952v3.196h-14.02zM92.946 22.35c0 4.585-4.5 10.275-9.63 12.178-2.21.82-3.776.82-5.983 0a12.627 12.627 0 01-1.218-.53l.003-.18v-4.396c0-4.901-1.421-9.128-4.117-12.32.148-.145.286-.285.416-.418.908-.926 1.071-1.093 2.055-.839.705.182 1.308.344 1.833.484 1.87.499 2.899.774 4.021.774 1.117 0 2.145-.274 4.01-.773.526-.14 1.131-.302 1.838-.485.985-.253 1.149-.088 2.055.837.906.922 2.202 2.235 4.717 2.792v2.876zM86.99 40.086l-5.604 3.276a2.501 2.501 0 00-.07.043c-.928.603-1.058.602-1.986 0a1.73 1.73 0 00-.068-.042l-5.043-2.955a16.72 16.72 0 001.254-2.839c.21.088.42.174.634.253 1.497.557 2.857.834 4.216.834 1.36 0 2.719-.277 4.216-.833.164-.061.327-.127.49-.194.399.858.997 1.81 1.96 2.457zm-6.663-36.57c5.614.1 11.612 3.991 12.505 12.268-.922-.372-1.48-.942-2.093-1.566-1.052-1.072-2.492-2.54-5.445-1.778-.717.186-1.332.35-1.866.493-1.629.435-2.447.653-3.102.653-.66 0-1.48-.219-3.114-.655-.533-.142-1.145-.306-1.86-.49-2.952-.763-4.393.708-5.446 1.782-.153.156-.305.308-.459.456a15.77 15.77 0 00-1.3-.884c1.575-6.961 7.131-10.184 12.18-10.279zM59.983 14.984c5.614.106 11.612 4 12.506 12.268-.921-.372-1.48-.94-2.09-1.563-.85-.866-1.952-1.99-3.905-1.99-.463 0-.975.064-1.543.21-.71.183-1.318.346-1.848.487-1.636.438-2.457.658-3.12.658-.662 0-1.483-.22-3.12-.658-.53-.141-1.138-.304-1.852-.489-2.952-.756-4.392.71-5.443 1.782-.61.623-1.169 1.191-2.09 1.563.893-8.269 6.892-12.162 12.505-12.268zm12.62 15.956v2.877c0 4.585-4.5 10.275-9.632 12.178-2.206.821-3.77.821-5.977 0-5.13-1.903-9.63-7.593-9.63-12.178V30.94c2.515-.556 3.81-1.867 4.714-2.79.907-.924 1.071-1.09 2.056-.838.7.18 1.299.341 1.82.48 1.873.502 2.905.777 4.03.777 1.124 0 2.156-.276 4.028-.776.522-.14 1.121-.3 1.816-.48.99-.254 1.154-.087 2.061.838.904.922 2.199 2.233 4.714 2.79zM39.639 3.516c5.045.095 10.6 3.318 12.18 10.28-.447.27-.88.566-1.3.882a22.024 22.024 0 01-.458-.455c-1.053-1.074-2.495-2.546-5.454-1.783-.71.184-1.318.347-1.847.489-1.636.438-2.458.657-3.12.657-.655 0-1.473-.218-3.101-.654-.535-.142-1.15-.306-1.87-.493-2.95-.757-4.39.71-5.44 1.78-.613.624-1.172 1.193-2.095 1.565.893-8.276 6.892-12.167 12.505-12.268zM27.021 22.349v-2.873c2.519-.555 3.811-1.871 4.717-2.793.907-.925 1.071-1.09 2.055-.84.707.184 1.312.345 1.839.486 1.864.498 2.892.773 4.008.773 1.125 0 2.157-.276 4.029-.777.522-.14 1.12-.3 1.818-.48.99-.256 1.154-.089 2.064.84.13.132.267.272.415.417-2.696 3.19-4.117 7.418-4.117 12.32v4.395c0 .06.003.12.004.18-.4.197-.808.376-1.225.53-2.206.821-3.77.821-5.978 0-5.13-1.903-9.629-7.593-9.629-12.178zm18.724 18.058l-5.04 2.957a1.677 1.677 0 00-.068.041c-.928.602-1.058.603-1.987 0a1.554 1.554 0 00-.067-.041l-5.6-3.283c.954-.65 1.555-1.608 1.951-2.451.163.067.328.131.492.192 2.993 1.114 5.435 1.114 8.425.001.215-.08.429-.165.641-.254a16.73 16.73 0 001.253 2.838zm5.365 8.342l-.937.251c-2.764.738-6.083 1.627-8.534 3.697H21.32v-3.196c0-4.903 2.68-6.573 7.218-7.951l8.233 4.827c2.063 1.327 3.68 1.327 5.743 0l5.207-3.054a20.784 20.784 0 004.456 4.099c-.258.602-.602 1.2-1.068 1.327zm9.93 6.083a1.456 1.456 0 00-.067.041c-.935.607-1.047.607-1.99-.002a1.458 1.458 0 00-.063-.04l-5.6-3.284c.957-.65 1.56-1.607 1.957-2.452.163.068.327.134.492.195 1.497.557 2.856.836 4.215.836 1.358 0 2.716-.279 4.211-.835.166-.062.33-.128.495-.195.397.844 1 1.8 1.955 2.45l-5.604 3.286zM69.795 49l-.936-.25c-.467-.129-.811-.727-1.07-1.33a20.797 20.797 0 004.455-4.095l5.209 3.052c1.031.664 1.951.995 2.871.995.92 0 1.84-.331 2.871-.994l8.249-4.823c4.528 1.377 7.203 3.049 7.203 7.947v3.196H78.328c-2.45-2.07-5.77-2.96-8.534-3.698z"/></g><defs><clipPath id="clip0"><path fill="#fff" d="M0 0h120v120H0z"/></clipPath></defs></svg>