<svg xmlns="http://www.w3.org/2000/svg" width="512" height="512" viewBox="0 0 64 64"><g xmlns="http://www.w3.org/2000/svg" fill="#fff"><path d="M6 10.414L8.086 12.5l-.793.793a.999.999 0 000 1.414L9.586 17l-1.293 1.293a.999.999 0 000 1.414l3 3a.997.997 0 001.414 0l2.113-2.113 8.315 13.228-4.814 4.443 1.356 1.47 4.54-4.191 6.601 10.501-4.665 7.422 1.693 1.064L32 47.925l4.153 6.608 1.693-1.064-4.665-7.422 6.601-10.501 4.54 4.191 1.356-1.47-4.814-4.443 8.315-13.228 2.113 2.113c.196.193.452.291.708.291s.512-.098.707-.293l3-3a.999.999 0 000-1.414L54.414 17l2.293-2.293a.999.999 0 000-1.414l-.793-.793L58 10.414l3.293 3.293 1.414-1.414-11-11-1.414 1.414L53.586 6 51.5 8.086l-.793-.793a.999.999 0 00-1.414 0L47 9.586l-1.293-1.293a.999.999 0 00-1.414 0l-3 3a.999.999 0 000 1.414l2.264 2.264L32 25.639 20.443 14.971l2.264-2.264a.999.999 0 000-1.414l-3-3a.999.999 0 00-1.414 0L17 9.586l-2.293-2.293a.999.999 0 00-1.414 0l-.793.793L10.414 6l3.293-3.293-1.414-1.414-11 11 1.414 1.414zm26 33.752l-6.287-10.002L32 28.361l6.287 5.803zM55 7.414L56.586 9 54.5 11.086 52.914 9.5zm-5 2L54.586 14 53 15.586 48.414 11zm-5 1L53.586 19 52 20.586 43.414 12zm-.028 5.972l2.757 2.757-8.359 13.299L33.474 27zM30.526 27l-5.895 5.442-8.359-13.299 2.757-2.757zM19 10.414L20.586 12 12 20.586 10.414 19zM15.586 11L11 15.586 9.414 14 14 9.414zm-4.5-1.5L9.5 11.086 7.414 9 9 7.414zM62 57H2a1 1 0 00-1 1v4a1 1 0 001 1h60a1 1 0 001-1v-4a1 1 0 00-1-1zm-1 4H3v-2h58z" data-original="#000000"/><path d="M57 24a1 1 0 00-2 0c0 2.757-2.243 5-5 5a1 1 0 000 2c2.757 0 5 2.243 5 5a1 1 0 002 0c0-2.757 2.243-5 5-5a1 1 0 000-2c-2.757 0-5-2.243-5-5zm-1 8.397A7.057 7.057 0 0053.603 30 7.057 7.057 0 0056 27.603 7.057 7.057 0 0058.397 30 7.066 7.066 0 0056 32.397zM52 36a1 1 0 00-2 0c0 2.757-2.243 5-5 5a1 1 0 000 2c2.757 0 5 2.243 5 5a1 1 0 002 0c0-2.757 2.243-5 5-5a1 1 0 000-2c-2.757 0-5-2.243-5-5zm-1 8.397A7.057 7.057 0 0048.603 42 7.057 7.057 0 0051 39.603 7.057 7.057 0 0053.397 42 7.066 7.066 0 0051 44.397zM2 31c2.757 0 5 2.243 5 5a1 1 0 002 0c0-2.757 2.243-5 5-5a1 1 0 000-2c-2.757 0-5-2.243-5-5a1 1 0 00-2 0c0 2.757-2.243 5-5 5a1 1 0 000 2zm6-3.397A7.057 7.057 0 0010.397 30 7.066 7.066 0 008 32.397 7.066 7.066 0 005.603 30 7.066 7.066 0 008 27.603zM14 36a1 1 0 00-2 0c0 2.757-2.243 5-5 5a1 1 0 000 2c2.757 0 5 2.243 5 5a1 1 0 002 0c0-2.757 2.243-5 5-5a1 1 0 000-2c-2.757 0-5-2.243-5-5zm-1 8.397A7.057 7.057 0 0010.603 42 7.057 7.057 0 0013 39.603 7.057 7.057 0 0015.397 42 7.066 7.066 0 0013 44.397z" data-original="#000000"/></g></svg>