<svg xmlns="http://www.w3.org/2000/svg" width="512" height="512"><path xmlns="http://www.w3.org/2000/svg" d="M504.499 357.197h-30.25c-4.142 0-7.5 3.357-7.5 7.5s3.358 7.5 7.5 7.5h22.75V497H387.953l-.003-124.803h53.61c4.142 0 7.5-3.357 7.5-7.5s-3.358-7.5-7.5-7.5h-22.63V287.04c0-8.751-5.027-16.84-12.843-20.729l-49.397-30.077v-18.218c0-4.143-3.358-7.5-7.5-7.5s-7.5 3.357-7.5 7.5v14.931h-47.13v-70.04a7.5 7.5 0 00-7.5-7.5h-9.05c-1.99 0-3.897.791-5.304 2.197l-26.47 26.48a8.125 8.125 0 01-2.12 1.523l-29.596 14.801v-18.225l20.035-10.019a7.507 7.507 0 001.949-1.404l29.26-29.261a8.1 8.1 0 015.758-2.394l108.92.12c4.576-.425 7.078-2.925 7.508-7.5v-31.08c0-4.405 3.584-7.989 7.99-7.989s7.99 3.584 7.99 7.989v41.141c-.398 7.749-4.898 12.249-13.5 13.5h-41.24a7.5 7.5 0 00-7.5 7.5v22.55c0 4.143 3.358 7.5 7.5 7.5s7.5-3.357 7.5-7.5v-15.05h33.74c14.997 0 28.5-13.427 28.5-28.5v-41.141c0-10.05-6.485-18.608-15.488-21.726V61.594h31.432v23.562a7.5 7.5 0 007.5 7.5h31.062a7.5 7.5 0 007.5-7.5V54.094a7.5 7.5 0 00-7.5-7.5h-23.562V23.031a7.5 7.5 0 00-7.5-7.5h-38.932V7.5c0-4.143-3.358-7.5-7.5-7.5s-7.5 3.357-7.5 7.5v71.419c-9.005 3.116-15.492 11.676-15.492 21.727v23.572l-28.378-.031a30.608 30.608 0 004.349-15.755V92.901c0-16.981-13.815-30.797-30.797-30.797s-30.797 13.815-30.797 30.797v15.531a30.6 30.6 0 004.315 15.696l-20.113-.022c-6.182 0-11.997 2.411-16.373 6.787l-28.399 28.399-53.882 26.945-45.726.052a30.607 30.607 0 004.336-15.734v-15.531c0-16.981-13.815-30.797-30.797-30.797-16.981 0-30.796 13.815-30.796 30.797v15.531a30.6 30.6 0 004.371 15.794l-5.113.006c-21.003 0-38.09 17.083-38.09 38.08v88.2c0 17.978 14.667 28.023 31.066 28.502v109.448H7.501a7.5 7.5 0 00-7.5 7.5v46.411a7.5 7.5 0 007.5 7.5l496.998.004a7.5 7.5 0 007.5-7.5V364.697a7.5 7.5 0 00-7.5-7.5zM465.935 77.655h-16.062V61.594h16.062zm-31.062-47.124v16.063h-31.432V30.531zm-132.546 77.902V92.901c0-8.71 7.086-15.797 15.797-15.797s15.797 7.087 15.797 15.797v15.531c-.001 19.949-31.594 20.677-31.594.001zm70.622 279.825h-47.326V279.384l47.005 22.298zm-25.867-140.311s51.955 31.618 52.189 31.729a8.185 8.185 0 014.658 7.363v70.156h-16.301v-60.258a7.5 7.5 0 00-4.286-6.776l-62.005-29.413c-6.339-2.782-10.756-.032-10.714 6.776v120.732h-16.062V247.947zm-262.191-77.39v-15.531c0-8.71 7.086-15.797 15.797-15.797 8.71 0 15.796 7.087 15.796 15.797v15.531c0 19.878-31.593 20.736-31.593 0zm-38.832 142.08v-88.2c0-12.727 10.358-23.08 23.099-23.08l105.5-.12a7.492 7.492 0 003.346-.792l21.516-10.759v18.225l-17.522 8.763a8.263 8.263 0 01-3.658.864h-46.59a7.5 7.5 0 00-7.5 7.5v21.81c0 4.143 3.358 7.5 7.5 7.5s7.5-3.357 7.5-7.5v-14.31h39.09c3.564 0 7.14-.843 10.354-2.442l62.131-31.07a23.101 23.101 0 006.02-4.335l22.716-22.725.002 216.293H256a7.5 7.5 0 00-7.5 7.5v23.563h-47.006v-70.155c0-8.752-5.027-16.841-12.844-20.729l-49.4-30.08v-18.83c0-4.143-3.358-7.5-7.5-7.5s-7.5 3.357-7.5 7.5v15.54H77.125v-54.91c0-4.143-3.358-7.5-7.5-7.5s-7.5 3.357-7.5 7.5v85.983c-9.376-.049-16.099-2.924-16.066-13.504zm119.848 39.649l-62.005-29.412c-6.278-2.532-10.653.468-10.714 6.776v120.732H77.125l.003-140.312h52.518s51.955 31.619 52.19 31.73a8.185 8.185 0 014.657 7.363v70.155h-16.301V359.06a7.5 7.5 0 00-4.285-6.774zm-57.719-10.777l47.005 22.297v55.515H131.75a7.5 7.5 0 00-7.5 7.5v23.767h-16.063V341.509zM15.001 465.587H124.25v31.411H15.001zM139.25 434.32h109.249v62.678H139.25zm124.249-31.062h109.45v93.74h-109.45z" fill="#fff" data-original="#000000"/></svg>