<svg xmlns="http://www.w3.org/2000/svg" width="512" height="512" viewBox="0 0 512.003 512.003"><g xmlns="http://www.w3.org/2000/svg" fill="#fff"><path d="M296.158 43.125a7.49 7.49 0 009.373 4.966 7.5 7.5 0 004.966-9.372L300.227 5.3c-1.217-3.96-5.413-6.187-9.372-4.966a7.5 7.5 0 00-4.966 9.372z" data-original="#000000"/><path d="M458.124 483.095c-3.605-11.513-12.551-20.778-23.929-24.785l-31.519-11.101-7.762-13.371c9.673-.342 19.132-10.555 16.337-21.947L372.8 252.88l36.214-20.261c26.751-14.546 41.309-47.684 33.184-77.997l-39.04-149.02a7.497 7.497 0 00-9.156-5.354 7.499 7.499 0 00-5.354 9.155l39.037 149.008c6.248 22.077-4.366 49.607-25.994 61.117L369.14 237.74l-6.051-25.023a455.713 455.713 0 00-7.312-26.658L320.85 72.41a7.5 7.5 0 00-14.338 4.406l34.925 113.65a441.822 441.822 0 017.07 25.777l48.163 199.174c.05 1.409.182 2.728-2.713 3.448h-90.483a4.532 4.532 0 01-4.396-3.42l-44.476-175.061a196.862 196.862 0 00-14.549-39.197L141.933 4.16a7.5 7.5 0 00-13.427 6.688l92.637 186.018-89.604 59.416c-7.311 4.845-10.738 13.277-9.37 21.437l-50.436 31.739c-10.629 6.323-14.54 19.864-8.898 30.886l47.749 93.281c3.263 6.374 9.187 10.686 16.255 11.83 1.22.197 2.436.294 3.641.294 5.78 0 11.29-2.237 15.515-6.389 8.606-8.455 12.778-20.64 11.16-32.595l-4.444-32.842 13.541-18.361c4.285 3.17 14.665 4.975 22.034.585l47.373-26.507a7.5 7.5 0 10-7.324-13.09l-47.379 26.51c-1.612 1.097-6.774 1.309-8.95-2.587l-34.317-63.101a6.51 6.51 0 012.14-8.589l88.023-58.367a181.714 181.714 0 0112.214 33.661l44.476 175.061c2.006 8.231 10.582 15.155 19.893 14.727l4.218 56.09c.758 12.369 11.042 22.048 23.442 22.048h104.792c7.16 0 13.698-3.31 17.937-9.079 4.235-5.769 5.439-12.997 3.3-19.829zM142.381 362.654l-16.19-7.048a7.5 7.5 0 00-5.987 13.754l17.799 7.749 4.286 31.668c.987 7.293-1.558 14.726-6.808 19.883a7.192 7.192 0 01-6.246 1.987 7.19 7.19 0 01-5.3-3.856L76.186 333.51a8.496 8.496 0 013.253-11.183l.193-.118 48.693-30.643 28.219 51.883zm300.351 131.388a7.187 7.187 0 01-5.849 2.961H332.092a8.494 8.494 0 01-8.472-7.991l-.008-.125-4.138-55.021h58.11l10.303 17.749-13.341 10.945a7.5 7.5 0 109.515 11.596l15.007-12.312 30.143 10.616c6.941 2.444 12.398 8.096 14.597 15.119a7.179 7.179 0 01-1.076 6.463z" data-original="#000000"/><path d="M90.21 187.594a7.502 7.502 0 006.782 4.287 7.462 7.462 0 003.209-.726 7.5 7.5 0 003.562-9.991L87.36 146.586a7.5 7.5 0 10-13.553 6.429zm5.188 42.642a7.504 7.504 0 006.874-4.493 7.5 7.5 0 00-3.861-9.879l-35.058-15.353a7.5 7.5 0 10-6.018 13.74l35.058 15.353c.98.429 2.001.632 3.005.632z" data-original="#000000"/></g></svg>