<svg xmlns="http://www.w3.org/2000/svg" width="512" height="512" viewBox="0 0 511 511.702"><g fill="#fff"><path xmlns="http://www.w3.org/2000/svg" d="M51.754 198.05v109.227l-31.7 31.828C5.446 353.762 1.095 375.77 9.025 394.88a51.196 51.196 0 0047.277 31.574h.105l38.016-.086v55.469c0 16.496 13.371 29.867 29.867 29.867 16.492 0 29.867-13.371 29.867-29.867v-58.41a29.716 29.716 0 000-53.762v-92.851l47.215-24.907a25.606 25.606 0 0013.383-18.875 25.588 25.588 0 00-7.3-21.957l-45.849-45.418a42.388 42.388 0 00-30.03-12.355h-45.09a16.986 16.986 0 01-12.047-4.98l-22.684-22.626v-6.824a155.727 155.727 0 012.559-37.156c2.269-9.7 5.624-19.11 10.003-28.059a73.863 73.863 0 013.848-6.55 41.641 41.641 0 008.867-24.852C75.746 9.554 65.008-.086 52.242 0h-.172C41.086.059 30.266 7.55 21.605 21.035a124.795 124.795 0 00-13.91 33.406 256.389 256.389 0 00-7.14 71.137 50.858 50.858 0 0014.968 36.18zm72.535 296.587c-7.07 0-12.8-5.73-12.8-12.801v-55.469h25.597v55.469c0 7.07-5.73 12.8-12.797 12.8zm26.137-89.063a12.67 12.67 0 01-6.367 3.41 14.3 14.3 0 01-2.704.317h-38.402l-46.566.086H56.3a34.134 34.134 0 01-24.172-58.23l34.176-34.29a8.567 8.567 0 001.816-2.746 8.444 8.444 0 00.598-2.96c0-.102.058-.188.058-.29v-3.969h68.27v59.735h-25.559v-27.762a12.8 12.8 0 00-21.855-9.043l-32.016 32.016a12.803 12.803 0 00-2.781 13.949 12.806 12.806 0 0011.824 7.906h74.695c.86.016 1.715.106 2.56.262a12.804 12.804 0 016.468 21.61zm-6.606-161.87l8.782 14.628-10.965 5.785c-.196.102-.48.281-.762.469l-2.387 1.226a8.594 8.594 0 01-11.539-3.632 8.15 8.15 0 01-.953-3.918 8.298 8.298 0 01.621-2.961 7.794 7.794 0 013.961-4.598zM94.422 366.636H76.96l17.46-17.461zm19.062-196.27l-10.53 17.555-10.528-17.555zm-51.097-9.965a34.198 34.198 0 007.543 5.52c.05.094.05.207.113.308l21.937 36.567a12.804 12.804 0 0010.973 6.21c4.496 0 8.66-2.359 10.977-6.21l19.36-32.266a25.319 25.319 0 0116.3 7.254l45.847 45.406a8.528 8.528 0 012.47 7.336 8.53 8.53 0 01-4.481 6.317l-25.703 13.515-8.797-14.64 8.933-4.73a8.53 8.53 0 002.055-13.575l-18.25-18.254a8.457 8.457 0 00-2.785-1.851 8.53 8.53 0 00-7.996.789 8.538 8.538 0 00-3.797 7.086v22.77l-14.387 7.608a26.278 26.278 0 00-13.773 22.7 25.32 25.32 0 002.965 11.945 25.702 25.702 0 0025.195 13.484v6.145H68.82V194.52a8.527 8.527 0 00-2.492-6.028L27.598 149.7a33.89 33.89 0 01-9.977-24.12 242.583 242.583 0 016.492-66.427c.66-2.32 1.375-4.726 2.168-7.175l16.742 8.37A148.604 148.604 0 0037.72 77.84a171.282 171.282 0 00-3.032 41.125v7.226a15.765 15.765 0 004.66 11.239zM52.148 17.043h.051a7.609 7.609 0 017.797 6.629 30.574 30.574 0 01-6.277 14.344c-1.446 2.296-2.766 4.496-3.91 6.64l-17.067-8.535c1.016-1.98 2.055-3.95 3.25-5.828 5.266-8.258 11.317-13.2 16.188-13.227zm0 0" data-original="#000000"/><path xmlns="http://www.w3.org/2000/svg" d="M60.29 97.836c0 25.918 21.01 46.934 46.933 46.934 25.918 0 46.933-21.016 46.933-46.934 0-25.922-21.015-46.934-46.933-46.934-25.91.028-46.907 21.024-46.934 46.934zm46.933-29.867c16.492 0 29.863 13.37 29.863 29.867 0 16.496-13.371 29.867-29.863 29.867-16.496 0-29.868-13.371-29.868-29.867 0-16.496 13.372-29.867 29.868-29.867zM337.621 153.3a44.915 44.915 0 0016.656-3.105c22.192-8.425 34.602-32.09 28.907-55.136-5.696-23.043-27.696-38.207-51.258-35.329-23.563 2.883-41.266 22.903-41.238 46.637a46.088 46.088 0 002.707 15.738c6.667 18.7 24.37 31.188 44.226 31.196zm0-76.8c14.387.066 26.68 10.379 29.25 24.535 2.567 14.153-5.316 28.13-18.762 33.246a28.014 28.014 0 01-10.488 1.953 29.867 29.867 0 01-28.16-19.89 29.214 29.214 0 01-1.707-9.977 29.87 29.87 0 018.75-21.117 29.856 29.856 0 0121.117-8.75zm0 0" data-original="#000000"/><path xmlns="http://www.w3.org/2000/svg" d="M215.73 336.367a17.073 17.073 0 00-5.566 13.363 17.075 17.075 0 006.703 12.836l7.84 5.973c.348.313.719.598 1.11.852 1.706 1.093 3.413 2.082 5.12 3.09v109.355c0 16.496 13.372 29.867 29.868 29.867 16.492 0 29.867-13.371 29.867-29.867v-90.61c6.2.657 12.426 1 18.66 1.028a243.134 243.134 0 0057.773-7.68l56.813 98.516a29.872 29.872 0 0029.781 14.648 29.87 29.87 0 0024.926-21.91 29.54 29.54 0 00-2.984-22.613l-51.118-88.578a221.245 221.245 0 004.84-2.242 17.069 17.069 0 005.281-26.813l-35.539-39.441a25.3 25.3 0 0016.434-2.637 25.729 25.729 0 0013.414-19.625l5.531-47.192a34.13 34.13 0 00-19.629-34.984l-59.91-27.64a34.144 34.144 0 00-23.808-1.786l-28.606 8.313a6.519 6.519 0 01-5.36-.778 6.653 6.653 0 01-2.991-4.792L271.387 37.922c-1.98-12.52-12.739-21.766-25.414-21.836-.973 0-2.055.094-3.797.273-13.977 2.258-23.528 15.348-21.418 29.348l24.312 140.688a207.639 207.639 0 004.614 20.48l12.843 45.79a54.828 54.828 0 01-16 55.687zm57.891 145.469c0 7.07-5.73 12.8-12.8 12.8-7.071 0-12.801-5.73-12.801-12.8V380.922a123.508 123.508 0 007.93 2.918h.05l.273.101h.075c2.117.778 4.27 1.426 6.394 2.047a150.909 150.909 0 0010.88 2.68zm188.535-10.367c-1.336 5-5.55 8.703-10.68 9.383a12.8 12.8 0 01-12.761-6.27l-54.613-94.719a322.669 322.669 0 0024.55-8.601l52.25 90.554a12.597 12.597 0 011.254 9.653zM237.602 43.016a8.533 8.533 0 016.878-9.743 8.81 8.81 0 0110.078 7.45l22.817 127.086a23.648 23.648 0 0010.629 16.386 23.638 23.638 0 0019.332 2.79l28.605-8.305a16.955 16.955 0 0111.946.855l59.886 27.63a17.07 17.07 0 019.797 17.483l-5.523 47.172a8.671 8.671 0 01-4.512 6.614 8.532 8.532 0 01-8.148-.059 9.024 9.024 0 01-4.27-9.191l1.375-11.52 2.68-22.7a17.012 17.012 0 00-9.797-17.491l-30.055-13.825a12.585 12.585 0 00-11.218.325 43.714 43.714 0 00-40.75-.36 55.995 55.995 0 00-41.164-1.101l-.067-.239a189.11 189.11 0 01-4.27-18.773zm135.27 223.925l-12.313-43.957 21.625 9.961-2.692 22.688-1.363 11.52c0 .163.05.316.043.48h-.102a28.509 28.509 0 00-.086 5.066zm-93.868-18.886l-8.07-28.746a36.97 36.97 0 0130.277.187 16.723 16.723 0 0013.969-.95A27.681 27.681 0 01342.023 220L357 273.453c0 .074.078.133.102.219.12.293.257.578.41.855.285.68.66 1.32 1.11 1.903.093.11.12.254.214.367L422 347.007c-3.5 1.708-7.86 3.661-12.973 5.813a297.132 297.132 0 01-39.925 13.817 189.858 189.858 0 01-101.633 3.027c-1.844-.535-3.688-1.066-5.844-1.875-9.21-3.047-18-7.234-26.164-12.469l-8.246-6.28 30.824-28.024c20.336-18.344 28.457-46.66 20.941-72.993zm0 0" data-original="#000000"/></g></svg>