<svg xmlns="http://www.w3.org/2000/svg" width="512" height="512"><g xmlns="http://www.w3.org/2000/svg" fill="#fff"><path d="M332.676 168.958v-19.711c0-9.082-7.389-16.471-16.471-16.471H156.187c-9.082 0-16.471 7.389-16.471 16.471v19.711c0 9.082 7.389 16.471 16.471 16.471h160.018c9.082 0 16.471-7.389 16.471-16.471zm-177.96 0v-19.711c0-.811.66-1.471 1.471-1.471h160.018c.811 0 1.471.66 1.471 1.471v19.711c0 .811-.66 1.471-1.471 1.471H156.187c-.811 0-1.471-.66-1.471-1.471zm32.697-135.364h-67.438c-4.142 0-7.5 3.357-7.5 7.5s3.358 7.5 7.5 7.5h67.438c4.142 0 7.5-3.357 7.5-7.5s-3.358-7.5-7.5-7.5zm39.339 32.595H119.975c-4.142 0-7.5 3.357-7.5 7.5s3.358 7.5 7.5 7.5h106.777c4.142 0 7.5-3.357 7.5-7.5s-3.358-7.5-7.5-7.5zm7.5 40.095a7.5 7.5 0 00-7.5-7.5H119.975c-4.142 0-7.5 3.357-7.5 7.5s3.358 7.5 7.5 7.5h106.777a7.5 7.5 0 007.5-7.5zM260.251 218a7.5 7.5 0 00-7.5-7.5H147.216c-4.142 0-7.5 3.357-7.5 7.5s3.358 7.5 7.5 7.5h105.535a7.5 7.5 0 007.5-7.5zm23.183 189.413c35.39 0 64.182-28.792 64.182-64.182s-28.792-64.182-64.182-64.182-64.182 28.792-64.182 64.182 28.792 64.182 64.182 64.182zm0-113.363c27.119 0 49.182 22.062 49.182 49.182s-22.062 49.182-49.182 49.182c-27.119 0-49.182-22.062-49.182-49.182s22.063-49.182 49.182-49.182z" data-original="#000000"/><path d="M283.434 377.564c4.143 0 7.5-3.357 7.5-7.5s-3.357-7.5-7.5-7.5c-10.66 0-19.334-8.673-19.334-19.333 0-10.661 8.674-19.334 19.334-19.334 10.661 0 19.334 8.673 19.334 19.334 0 4.143 3.357 7.5 7.5 7.5s7.5-3.357 7.5-7.5c0-18.932-15.402-34.334-34.334-34.334S249.1 324.3 249.1 343.231s15.402 34.333 34.334 34.333zm88.2-118.71a7.5 7.5 0 00-10.607 10.607l18.487 18.487c1.465 1.464 3.385 2.196 5.304 2.196s3.839-.732 5.304-2.196a7.5 7.5 0 000-10.607z" data-original="#000000"/><path d="M495.099 148.649c-8.835-7.609-20.191-11.715-31.965-11.641a7.501 7.501 0 00.064 15h.066c8.15-.097 15.968 2.771 22.045 8.006 14.883 12.817 15.634 35.322 1.895 49.062-6.635 6.634-15.466 10.107-24.839 9.771a20.33 20.33 0 00-13.909 4.808l-40.605 34.333-16.863-16.863 34.334-40.605a20.399 20.399 0 004.806-13.911 33.504 33.504 0 0110.357-25.39 7.5 7.5 0 00-10.357-10.851c-10.013 9.558-15.477 22.96-14.99 36.77a5.418 5.418 0 01-1.271 3.698l-22.741 26.896V38.727c0-21.354-17.372-38.726-38.726-38.726H147.216c-4.142 0-7.5 3.357-7.5 7.5s3.358 7.5 7.5 7.5H352.4c13.082 0 23.726 10.644 23.726 23.726v187.535l-20.287-20.287c-4.169-4.168-10.315-5.886-16.041-4.48l-.001.001-22.027 5.407a16.971 16.971 0 00-7.953 4.479l-9.979 9.979a16.86 16.86 0 00-4.97 11.997c0 4.532 1.766 8.793 4.97 11.997l76.289 76.288v105.303h-214.45c-.169 0-.334.014-.5.025-.166-.011-.331-.025-.5-.025a7.5 7.5 0 00-7.5 7.5v32.732c0 15.753-12.28 28.684-27.77 29.742-17.765-1.137-31.872-15.943-31.872-33.99V46.767c0-11.853-4.567-23.249-12.474-31.766h36.169c4.142 0 7.5-3.357 7.5-7.5s-3.358-7.5-7.5-7.5H46.805L46.767 0C20.98 0 .001 20.979.001 46.767v52.276c0 7.99 6.5 14.49 14.49 14.49h64.043V467.18c0 24.714 20.106 44.82 44.821 44.82 49.615 0 54.129-.009 85.524 0 4.142 0 7.5-3.357 7.5-7.5s-3.358-7.5-7.5-7.5h-52.101c7.082-7.929 11.397-18.378 11.397-29.82v-25.232h270.733v7.037c0 26.476-21.54 48.016-48.016 48.016H240.594c-4.142 0-7.5 3.357-7.5 7.5s3.358 7.5 7.5 7.5h150.298c34.747 0 63.016-28.269 63.016-63.016v-14.537c0-4.143-3.357-7.5-7.5-7.5h-55.283v-90.304l12.495 12.495a16.853 16.853 0 0011.997 4.97 16.86 16.86 0 0011.997-4.969l9.979-9.979a16.973 16.973 0 004.479-7.952l5.408-22.029c1.405-5.727-.312-11.874-4.48-16.041l-24.506-24.506 39.648-33.522a5.45 5.45 0 013.69-1.271c13.416.498 26.507-4.685 35.978-14.154 19.5-19.503 19.187-52.176-2.711-71.037zM15.001 98.533V46.767c0-17.512 14.243-31.759 31.753-31.766l.013.001c17.516 0 31.767 14.25 31.767 31.766v51.767H15.001zm417.913 207.071l-5.409 22.029a1.95 1.95 0 01-.519.92l-9.979 9.979c-.476.477-1.019.576-1.39.576s-.914-.1-1.39-.576L310.442 234.748c-.476-.476-.576-1.019-.576-1.39s.101-.914.577-1.39l9.979-9.979c.253-.254.571-.434.921-.52l22.028-5.407v-.001a1.981 1.981 0 011.858.521l87.165 87.164c.484.483.682 1.194.52 1.858z" data-original="#000000"/></g></svg>