<svg width="584" height="584" viewBox="0 0 584 584" fill="none" xmlns="http://www.w3.org/2000/svg">
<path fill-rule="evenodd" clip-rule="evenodd" d="M59.2483 38.562C115.251 -17.4403 209.757 -13.183 248.75 56.6876L270.383 95.452C295.847 141.079 284.997 198.649 247.72 236.381C247.223 237.061 244.59 240.892 244.263 247.586C243.847 256.13 246.88 275.89 277.493 306.503C308.097 337.107 327.853 340.15 336.403 339.733C343.103 339.407 346.937 336.777 347.617 336.277C385.35 299.003 442.92 288.15 488.547 313.613L527.31 335.25C597.18 374.243 601.437 468.747 545.437 524.75C515.48 554.703 475.65 581.32 428.843 583.097C359.48 585.727 244.303 567.813 130.245 453.753C16.1853 339.693 -1.72732 224.519 0.902009 155.154C2.67668 108.348 29.293 68.5173 59.2483 38.562ZM205.09 81.0543C185.121 45.276 131.465 37.0563 94.6037 73.9173C68.7587 99.7623 51.9567 128.289 50.8663 157.049C48.6733 214.893 62.9547 315.753 165.6 418.397C268.247 521.043 369.103 535.323 426.95 533.13C455.71 532.04 484.237 515.24 510.08 489.393C546.94 452.533 538.72 398.877 502.943 378.91L464.18 357.277C440.067 343.817 406.193 348.41 382.417 372.187C380.08 374.52 365.213 388.393 338.833 389.677C311.823 390.99 279.133 378.853 242.14 341.86C205.133 304.853 193 272.153 194.323 245.141C195.617 218.757 209.49 203.904 211.81 201.582C235.587 177.805 240.18 143.932 226.723 119.819L205.09 81.0543Z" fill="black"/>
</svg>
